<svg viewBox="0 0 200 200" xmlns="http://www.w3.org/2000/svg">
  <path
    fill="#FF0066"
    d="M32.9,-56C46.9,-48.8,65.6,-48.7,73.9,-40.6C82.2,-32.4,80.2,-16.2,77.4,-1.6C74.5,12.9,70.9,25.9,62.7,34.4C54.6,42.8,42,46.9,30.8,51.5C19.6,56.1,9.8,61.2,0.6,60.1C-8.5,59,-17,51.6,-28,46.9C-39,42.2,-52.5,40.1,-64.8,32.7C-77.1,25.4,-88.2,12.7,-90.1,-1.1C-92,-14.9,-84.7,-29.8,-75.1,-41.8C-65.5,-53.9,-53.7,-63.2,-40.8,-71.1C-27.9,-78.9,-14,-85.3,-2.3,-81.4C9.4,-77.4,18.8,-63.2,32.9,-56Z"
    transform="translate(100 100)" />
</svg>
